<?xml version="1.0" encoding="utf-8"?>
<!-- Generator: Adobe Illustrator 27.0.0, SVG Export Plug-In . SVG Version: 6.00 Build 0)  -->
<svg version="1.1" id="Calque_1" xmlns="http://www.w3.org/2000/svg" xmlns:xlink="http://www.w3.org/1999/xlink" x="0px" y="0px"
	 viewBox="0 0 448 512" style="enable-background:new 0 0 448 512;" xml:space="preserve">
<style type="text/css">
	.st0{fill:#0065FC;}
</style>
<path class="st0" d="M159.3,5.4c7.8-7.3,19.9-7.2,27.7,0.1c27.6,25.9,53.5,53.8,77.7,84c11-14.4,23.5-30.1,37-42.9
	c7.9-7.4,20.1-7.4,28,0.1c34.6,33,63.9,76.6,84.5,118c20.3,40.8,33.8,82.5,33.8,111.9C448,404.2,348.2,512,224,512
	C98.4,512,0,404.1,0,276.5c0-38.4,17.8-85.3,45.4-131.7C73.3,97.7,112.7,48.6,159.3,5.4z M225.7,416c25.3,0,47.7-7,68.8-21
	c42.1-29.4,53.4-88.2,28.1-134.4c-4.5-9-16-9.6-22.5-2l-25.2,29.3c-6.6,7.6-18.5,7.4-24.7-0.5c-16.5-21-46-58.5-62.8-79.8
	c-6.3-8-18.3-8.1-24.7-0.1c-33.8,42.5-50.8,69.3-50.8,99.4C112,375.4,162.6,416,225.7,416z"/>
</svg>
